<?xml version="1.0" standalone="no"?>
<!DOCTYPE svg PUBLIC "-//W3C//DTD SVG 20010904//EN"
 "http://www.w3.org/TR/2001/REC-SVG-20010904/DTD/svg10.dtd">
<svg version="1.0" xmlns="http://www.w3.org/2000/svg"
 width="900.000000pt" height="782.000000pt" viewBox="0 0 900.000000 782.000000"
 preserveAspectRatio="xMidYMid meet">

<g transform="translate(0.000000,782.000000) scale(0.100000,-0.100000)"
fill="#000000" stroke="none">
<path d="M4462 7743 c-57 -99 -460 -796 -632 -1093 -468 -810 -571 -989 -707
-1225 -177 -308 -400 -695 -733 -1270 -133 -231 -336 -582 -450 -780 -114
-198 -285 -493 -379 -655 l-170 -295 132 -5 c73 -3 534 -5 1026 -5 l894 0 499
870 c275 479 614 1068 753 1310 139 242 314 548 390 680 76 132 206 357 288
500 82 143 150 265 150 270 0 6 -47 91 -105 190 -58 99 -284 491 -503 870
-219 380 -401 694 -405 698 -4 5 -26 -22 -48 -60z"/>
<path d="M5707 5393 c-397 -666 -941 -1579 -944 -1585 -2 -4 52 -103 120 -220
124 -212 395 -679 877 -1508 284 -489 723 -1243 1006 -1729 l189 -324 940 1
c517 0 977 1 1022 1 l81 1 -250 432 c-137 238 -307 532 -378 653 -70 121 -198
344 -285 495 -87 151 -282 489 -433 750 -151 261 -327 565 -390 675 -63 110
-223 387 -355 615 -132 228 -332 575 -445 770 -112 195 -271 470 -351 610 -81
140 -181 313 -221 383 -40 70 -77 130 -81 133 -4 2 -50 -66 -102 -153z"/>
<path d="M990 1718 c-74 -128 -160 -278 -191 -333 -31 -55 -190 -332 -354
-615 -427 -739 -425 -736 -425 -743 0 -4 1447 -7 3216 -7 2894 0 3216 2 3210
15 -3 9 -176 314 -384 678 -209 364 -391 685 -406 712 -16 28 -89 157 -163
288 l-136 237 -2116 0 -2117 0 -134 -232z"/>
</g>
</svg>
